<svg xmlns="http://www.w3.org/2000/svg" xmlns:xlink="http://www.w3.org/1999/xlink" width="77.782" height="77.782" viewBox="0 0 77.782 77.782">
  <defs>
    <linearGradient id="linear-gradient" x1="0.5" x2="0.5" y2="1" gradientUnits="objectBoundingBox">
      <stop offset="0" stop-color="#e204d2"/>
      <stop offset="1" stop-color="#7b2fce"/>
    </linearGradient>
  </defs>
  <g id="Grupo_27" data-name="Grupo 27" transform="translate(-663.109 -818.609)">
    <g id="Caminho_17" data-name="Caminho 17" transform="translate(676 831)" fill="none">
      <path d="M26.5,0A26.5,26.5,0,1,1,0,26.5,26.5,26.5,0,0,1,26.5,0Z" stroke="none"/>
      <path d="M 26.5 1 C 23.05707931518555 1 19.71768188476563 1.674079895019531 16.57455825805664 3.003509521484375 C 13.53815841674805 4.287799835205078 10.81098175048828 6.126579284667969 8.468780517578125 8.468780517578125 C 6.126579284667969 10.81098175048828 4.287799835205078 13.53815841674805 3.003509521484375 16.57455825805664 C 1.674079895019531 19.71768188476563 1 23.05707931518555 1 26.5 C 1 29.94292068481445 1.674079895019531 33.28231811523438 3.003509521484375 36.42543792724609 C 4.287799835205078 39.46183776855469 6.126579284667969 42.18901824951172 8.468780517578125 44.53121948242188 C 10.81098175048828 46.87342071533203 13.53815841674805 48.71220016479492 16.57455825805664 49.99649047851563 C 19.71768188476563 51.32592010498047 23.05707931518555 52 26.5 52 C 29.94292068481445 52 33.28231811523438 51.32592010498047 36.42543792724609 49.99649047851563 C 39.46183776855469 48.71220016479492 42.18901824951172 46.87342071533203 44.53121948242188 44.53121948242188 C 46.87342071533203 42.18901824951172 48.71220016479492 39.46183776855469 49.99649047851563 36.42543792724609 C 51.32592010498047 33.28231811523438 52 29.94292068481445 52 26.5 C 52 23.05707931518555 51.32592010498047 19.71768188476563 49.99649047851563 16.57455825805664 C 48.71220016479492 13.53815841674805 46.87342071533203 10.81098175048828 44.53121948242188 8.468780517578125 C 42.18901824951172 6.126579284667969 39.46183776855469 4.287799835205078 36.42543792724609 3.003509521484375 C 33.28231811523438 1.674079895019531 29.94292068481445 1 26.5 1 M 26.5 0 C 41.13554000854492 0 53 11.86445999145508 53 26.5 C 53 41.13554000854492 41.13554000854492 53 26.5 53 C 11.86445999145508 53 0 41.13554000854492 0 26.5 C 0 11.86445999145508 11.86445999145508 0 26.5 0 Z" stroke="none" fill="#c112d1"/>
    </g>
    <path id="Caminho_14" data-name="Caminho 14" d="M0,0S15.29,11.022,29.04,11.022,55,0,55,0s-9.886,13.346-9.886,27.1S55,55,55,55,41.634,44.325,27.884,44.325,0,55,0,55,11.811,42,11.811,28.251,0,0,0,0Z" transform="translate(702 818.609) rotate(45)" fill="url(#linear-gradient)"/>
  </g>
</svg>
