<svg xmlns="http://www.w3.org/2000/svg" xmlns:xlink="http://www.w3.org/1999/xlink" width="45" height="45" viewBox="0 0 45 45">
  <defs>
    <clipPath id="clip-path">
      <rect id="Ret칙ngulo_103" data-name="Ret칙ngulo 103" width="45" height="45" transform="translate(801 2668)" fill="#fff" stroke="#707070" stroke-width="1"/>
    </clipPath>
  </defs>
  <g id="Grupo_de_m치scara_13" data-name="Grupo de m치scara 13" transform="translate(-801 -2668)" clip-path="url(#clip-path)">
    <g id="setting" transform="translate(801 2668)">
      <path id="Caminho_45" data-name="Caminho 45" d="M37.2,5.383l3.229,3.23a2.192,2.192,0,0,1,0,3.09l-2.6,2.6a17.291,17.291,0,0,1,1.613,4.3h3.369A2.192,2.192,0,0,1,45,20.793V25.36a2.192,2.192,0,0,1-2.186,2.186H39.138a17.283,17.283,0,0,1-1.906,4.181l2.385,2.384a2.192,2.192,0,0,1,0,3.091l-3.229,3.23a2.192,2.192,0,0,1-3.09,0l-2.6-2.6a17.255,17.255,0,0,1-4.3,1.614v3.369A2.192,2.192,0,0,1,24.206,45H19.64a2.192,2.192,0,0,1-2.186-2.186V39.137a17.289,17.289,0,0,1-4.181-1.906l-2.384,2.385a2.192,2.192,0,0,1-3.091,0L4.568,36.387a2.192,2.192,0,0,1,0-3.09l2.6-2.6a17.24,17.24,0,0,1-1.613-4.3H2.186A2.192,2.192,0,0,1,0,24.206V19.639a2.192,2.192,0,0,1,2.186-2.186H5.862a17.311,17.311,0,0,1,1.906-4.181L5.383,10.888a2.192,2.192,0,0,1,0-3.091l3.23-3.23a2.192,2.192,0,0,1,3.09,0l2.6,2.6a17.261,17.261,0,0,1,4.3-1.614V2.186A2.192,2.192,0,0,1,20.794,0h4.567a2.192,2.192,0,0,1,2.186,2.186V5.861a17.3,17.3,0,0,1,4.183,1.906l2.383-2.384a2.192,2.192,0,0,1,3.091,0ZM22.5,13.521A8.979,8.979,0,1,1,13.521,22.5,8.98,8.98,0,0,1,22.5,13.521Z" fill="#fff" fill-rule="evenodd"/>
    </g>
  </g>
</svg>
