<svg xmlns="http://www.w3.org/2000/svg" xmlns:xlink="http://www.w3.org/1999/xlink" width="16" height="16" viewBox="0 0 16 16">
  <defs>
    <clipPath id="clip-path">
      <rect id="Ret칙ngulo_116" data-name="Ret칙ngulo 116" width="16" height="16" transform="translate(759 3875)" fill="#fff" stroke="#707070" stroke-width="1"/>
    </clipPath>
  </defs>
  <g id="Grupo_de_m치scara_14" data-name="Grupo de m치scara 14" transform="translate(-759 -3875)" clip-path="url(#clip-path)">
    <g id="globe-line-option" transform="translate(759 3875)">
      <path id="Caminho_49" data-name="Caminho 49" d="M14.253,11.654a.36.36,0,0,1,.069.007,8.03,8.03,0,0,0,.408-.818l.008-.017a6.978,6.978,0,0,0,.418-1.357,7.367,7.367,0,0,0,.135-1.119h-2.2a7.117,7.117,0,0,1-.995,3.3h2.156Zm-.383.7H11.655a14.817,14.817,0,0,1-2.713,2.886q.267-.033.528-.085a6.954,6.954,0,0,0,1.374-.425h0a7.709,7.709,0,0,0,1.251-.677,7.073,7.073,0,0,0,1.074-.885h0a7.071,7.071,0,0,0,.7-.813ZM7.059,15.242a14.821,14.821,0,0,1-2.713-2.886H2.13a7.082,7.082,0,0,0,.7.813h0a7.085,7.085,0,0,0,1.074.885,7.7,7.7,0,0,0,1.251.677l.017.008a6.968,6.968,0,0,0,1.357.418q.261.052.528.085ZM1.673,11.654H3.9a7.115,7.115,0,0,1-.994-3.3H.709A7.348,7.348,0,0,0,.844,9.469a6.963,6.963,0,0,0,.425,1.374h0a7.959,7.959,0,0,0,.4.812Zm-.964-4H2.922a7.627,7.627,0,0,1,1.095-3.3H1.673a7.948,7.948,0,0,0-.4.812l-.008.017A6.973,6.973,0,0,0,.844,6.531,7.35,7.35,0,0,0,.709,7.649Zm1.421-4H4.466A16.419,16.419,0,0,1,7.108.752q-.292.034-.577.091a6.96,6.96,0,0,0-1.374.425h0a7.7,7.7,0,0,0-1.251.677,7.092,7.092,0,0,0-1.074.885h0a7.083,7.083,0,0,0-.7.813ZM8.892.752a16.425,16.425,0,0,1,2.642,2.892H13.87a7.071,7.071,0,0,0-.7-.813h0a7.072,7.072,0,0,0-1.074-.885,7.709,7.709,0,0,0-1.251-.677l-.017-.008A6.973,6.973,0,0,0,9.469.844Q9.184.787,8.892.752Zm5.435,3.594H11.983a7.626,7.626,0,0,1,1.095,3.3h2.213a7.381,7.381,0,0,0-.135-1.118,6.972,6.972,0,0,0-.425-1.374h0a7.921,7.921,0,0,0-.4-.812ZM6.394.156a8.345,8.345,0,0,1,3.212,0A7.667,7.667,0,0,1,11.1.618l.019.008a8.384,8.384,0,0,1,1.363.74,7.913,7.913,0,0,1,2.152,2.152,8.4,8.4,0,0,1,.74,1.364h0a7.65,7.65,0,0,1,.469,1.512,8.353,8.353,0,0,1,0,3.212,7.669,7.669,0,0,1-.462,1.494l-.008.019a8.39,8.39,0,0,1-.74,1.364,7.913,7.913,0,0,1-2.152,2.152,8.379,8.379,0,0,1-1.363.74h0a7.661,7.661,0,0,1-1.512.469,8.345,8.345,0,0,1-3.212,0A7.674,7.674,0,0,1,4.9,15.382l-.019-.008a8.37,8.37,0,0,1-1.364-.74,7.915,7.915,0,0,1-2.152-2.152,8.385,8.385,0,0,1-.74-1.364h0A7.658,7.658,0,0,1,.156,9.606a8.342,8.342,0,0,1,0-3.212A7.67,7.67,0,0,1,.618,4.9l.008-.019a8.382,8.382,0,0,1,.74-1.364A7.915,7.915,0,0,1,3.517,1.365,8.4,8.4,0,0,1,4.881.625h0A7.689,7.689,0,0,1,6.394.156ZM8.351,1.207V3.645h2.321A16.7,16.7,0,0,0,8.351,1.207Zm0,3.139v3.3h4.026a7.219,7.219,0,0,0-1.213-3.3Zm0,4v3.3h2.931a6.632,6.632,0,0,0,1.111-3.3Zm0,4v2.468a15.13,15.13,0,0,0,2.441-2.468H8.351Zm-.7,2.468V12.355H5.208a15.122,15.122,0,0,0,2.441,2.468Zm0-3.169v-3.3H3.608a6.628,6.628,0,0,0,1.111,3.3H7.649Zm0-4v-3.3H4.836a7.221,7.221,0,0,0-1.213,3.3Zm0-4V1.207A16.7,16.7,0,0,0,5.328,3.645Z" fill="#747e88"/>
    </g>
  </g>
</svg>
