<svg xmlns="http://www.w3.org/2000/svg" xmlns:xlink="http://www.w3.org/1999/xlink" width="16" height="16" viewBox="0 0 16 16">
  <defs>
    <clipPath id="clip-path">
      <rect id="Ret칙ngulo_122" data-name="Ret칙ngulo 122" width="16" height="16" transform="translate(177 3900)" fill="#fff" stroke="#707070" stroke-width="1"/>
    </clipPath>
  </defs>
  <g id="Grupo_de_m치scara_18" data-name="Grupo de m치scara 18" transform="translate(-177 -3900)" clip-path="url(#clip-path)">
    <path id="instagram" d="M4.618.069h6.765A4.6,4.6,0,0,1,16,4.627v6.746a4.6,4.6,0,0,1-4.618,4.558H4.618A4.6,4.6,0,0,1,0,11.373V4.627A4.6,4.6,0,0,1,4.618.069ZM7.957,3.717A4.472,4.472,0,1,1,3.485,8.189,4.473,4.473,0,0,1,7.957,3.717Zm0,1.51A2.962,2.962,0,1,1,5,8.189,2.962,2.962,0,0,1,7.957,5.228ZM12.283,3.1a.726.726,0,1,1-.726.726.726.726,0,0,1,.726-.726ZM5.171,1.365h5.66a3.864,3.864,0,0,1,3.863,3.843V10.9a3.864,3.864,0,0,1-3.863,3.842H5.171A3.864,3.864,0,0,1,1.307,10.9V5.207A3.864,3.864,0,0,1,5.171,1.364Z" transform="translate(177 3900)" fill="#747e88" fill-rule="evenodd"/>
  </g>
</svg>
