<svg xmlns="http://www.w3.org/2000/svg" xmlns:xlink="http://www.w3.org/1999/xlink" width="45" height="45" viewBox="0 0 45 45">
  <defs>
    <clipPath id="clip-path">
      <rect id="Ret칙ngulo_75" data-name="Ret칙ngulo 75" width="45" height="45" transform="translate(292 1068)" fill="#fff" stroke="#707070" stroke-width="1"/>
    </clipPath>
  </defs>
  <g id="Grupo_de_m치scara_8" data-name="Grupo de m치scara 8" transform="translate(-292 -1068)" clip-path="url(#clip-path)">
    <g id="single" transform="translate(304.893 1068)">
      <path id="Caminho_23" data-name="Caminho 23" d="M11.4,9.785c-2.062,0-4.318-.333-6.233.439h0a8.242,8.242,0,0,0-3.779,4.05A10.815,10.815,0,0,0,.355,18.588,33.045,33.045,0,0,0,0,23.474a2.274,2.274,0,0,0,.227.714H3.545a1.649,1.649,0,0,0,.3-.714l.388-5.046a5.6,5.6,0,0,1,.417-2,3.445,3.445,0,0,1,.524-.875L5.2,16.9v-.04l.161,7.859L2.831,42.7a2.253,2.253,0,0,0,4.457.5L9.58,26.854l2.241,16.135c.945,3.318,4.827,2.076,4.457-.447l-.663-5.083L13.872,24.631l.135-7.936v.154l.007-.322v.385l.029-1.351a3.445,3.445,0,0,1,.524.875,5.6,5.6,0,0,1,.417,2l.388,5.046c.161,2.153,3.79,1.827,3.841,0a33.081,33.081,0,0,0-.355-4.885,10.844,10.844,0,0,0-1.036-4.314,8.185,8.185,0,0,0-3.8-4.061v0A7.21,7.21,0,0,0,11.4,9.785ZM9.584,0A4.526,4.526,0,1,1,5.057,4.526,4.524,4.524,0,0,1,9.584,0Z" fill="#fff" fill-rule="evenodd"/>
    </g>
  </g>
</svg>
