<svg xmlns="http://www.w3.org/2000/svg" xmlns:xlink="http://www.w3.org/1999/xlink" width="16" height="16" viewBox="0 0 16 16">
  <defs>
    <clipPath id="clip-path">
      <rect id="Ret칙ngulo_119" data-name="Ret칙ngulo 119" width="16" height="16" transform="translate(635 3780)" fill="#fff" stroke="#707070" stroke-width="1"/>
    </clipPath>
  </defs>
  <g id="Grupo_de_m치scara_17" data-name="Grupo de m치scara 17" transform="translate(-635 -3780)" clip-path="url(#clip-path)">
    <g id="phone-line" transform="translate(635 3780.04)">
      <path id="Caminho_52" data-name="Caminho 52" d="M4.4,6.548A13.4,13.4,0,0,0,6.367,9.3a11.131,11.131,0,0,0,3.109,2.292h0a.321.321,0,0,0,.27.015,1.16,1.16,0,0,0,.375-.272,4.594,4.594,0,0,0,.343-.42c.5-.658,1.12-1.472,1.994-1.067a.366.366,0,0,1,.052.029l2.913,1.673.03.019A1.3,1.3,0,0,1,16,12.7a3.052,3.052,0,0,1-.426,1.445,3,3,0,0,1-1.4,1.24,6.305,6.305,0,0,1-1.728.47,5.872,5.872,0,0,1-2.642-.22,11.618,11.618,0,0,1-2.656-1.284l-.068-.042c-.433-.268-.9-.557-1.353-.9A16.945,16.945,0,0,1,1.239,8.321,8.275,8.275,0,0,1,.076,3.084,3.77,3.77,0,0,1,1.345.7,3.405,3.405,0,0,1,3.878.019.379.379,0,0,1,4.171.2h0l1.865,3.16a.982.982,0,0,1,.157,1.054,2.092,2.092,0,0,1-.713.8c-.1.085-.222.173-.346.263-.416.3-.893.653-.731,1.064ZM5.817,9.821A14.139,14.139,0,0,1,3.736,6.91a.374.374,0,0,1-.026-.051c-.413-.971.328-1.514.976-1.987.11-.08.217-.158.313-.238H5l.018-.014a1.431,1.431,0,0,0,.479-.5.281.281,0,0,0-.061-.295A.386.386,0,0,1,5.4,3.771L3.619.762a2.594,2.594,0,0,0-1.795.527,3.024,3.024,0,0,0-1,1.914A7.547,7.547,0,0,0,1.9,7.955a16.15,16.15,0,0,0,4.279,4.85c.44.332.882.606,1.293.86l.068.042a10.9,10.9,0,0,0,2.481,1.2,5.132,5.132,0,0,0,2.309.193,5.591,5.591,0,0,0,1.519-.407,2.261,2.261,0,0,0,1.059-.925,2.293,2.293,0,0,0,.328-1.071.588.588,0,0,0-.209-.5l-2.9-1.664c-.32-.141-.733.4-1.067.84a4.922,4.922,0,0,1-.411.5,1.874,1.874,0,0,1-.646.444,1.047,1.047,0,0,1-.88-.048h0a11.879,11.879,0,0,1-3.316-2.45Z" fill="#747e88"/>
    </g>
  </g>
</svg>
